<?xml version="1.0" encoding="UTF-8"?>
<svg xmlns="http://www.w3.org/2000/svg" width="595" height="842" viewBox="0 0 595 842">
  <rect x="0" y="0" width="595" height="842" fill="white" stroke="black" stroke-width="1"/>
  <text x="40" y="72" font-family="sans-serif" font-size="24" class="title">Endings Demo</text>
  <text x="40" y="100" font-family="sans-serif" font-size="12" class="meta">Medium Swing • C major</text>
  <g class="bar-grid">
    <rect x="40" y="120" width="128" height="50" fill="none" stroke="black" stroke-width="1"/>
    <text x="104" y="151" font-family="serif" font-size="14" text-anchor="middle" class="chord"><tspan class="chord-root">C</tspan><tspan class="chord-ext" font-size="10" dy="-4">maj7</tspan></text>
    <rect x="168" y="120" width="128" height="50" fill="none" stroke="black" stroke-width="1"/>
    <text x="232" y="151" font-family="serif" font-size="14" text-anchor="middle" class="chord"><tspan class="chord-root">A</tspan><tspan class="chord-ext" font-size="10" dy="-4">m7</tspan></text>
    <rect x="296" y="120" width="128" height="50" fill="none" stroke="black" stroke-width="1"/>
    <text x="360" y="151" font-family="serif" font-size="14" text-anchor="middle" class="chord"><tspan class="chord-root">D</tspan><tspan class="chord-ext" font-size="10" dy="-4">m7</tspan></text>
    <rect x="424" y="120" width="131" height="50" fill="none" stroke="black" stroke-width="1"/>
    <text x="489" y="151" font-family="serif" font-size="14" text-anchor="middle" class="chord"><tspan class="chord-root">G</tspan><tspan class="chord-ext" font-size="10" dy="-4">7</tspan></text>
    <text x="40" y="114" font-family="sans-serif" font-size="12" font-weight="bold" class="section-label">A</text>
    <line x1="168" y1="117" x2="424" y2="117" stroke="black" stroke-width="1" class="ending-bracket"/>
    <line x1="168" y1="117" x2="168" y2="123" stroke="black" stroke-width="1" class="ending-bracket"/>
    <line x1="424" y1="117" x2="424" y2="123" stroke="black" stroke-width="1" class="ending-bracket"/>
    <text x="172" y="115" font-family="sans-serif" font-size="10" class="ending-label">1.</text>
    <line x1="424" y1="117" x2="555" y2="117" stroke="black" stroke-width="1" class="ending-bracket"/>
    <line x1="424" y1="117" x2="424" y2="123" stroke="black" stroke-width="1" class="ending-bracket"/>
    <line x1="555" y1="117" x2="555" y2="123" stroke="black" stroke-width="1" class="ending-bracket"/>
    <text x="428" y="115" font-family="sans-serif" font-size="10" class="ending-label">2.</text>
  </g>
</svg>
