<?xml version="1.0" encoding="UTF-8"?>
<svg xmlns="http://www.w3.org/2000/svg" width="595" height="842" viewBox="0 0 595 842">
  <rect x="0" y="0" width="595" height="842" fill="white" stroke="black" stroke-width="1"/>
  <text x="40" y="72" font-family="sans-serif" font-size="24" class="title">Autumn Leaves</text>
  <text x="555" y="72" font-family="sans-serif" font-size="14" text-anchor="end" class="composer">Joseph Kosma</text>
  <text x="40" y="100" font-family="sans-serif" font-size="12" class="meta">Medium Swing • E minor</text>
  <g class="bar-grid">
    <rect x="40" y="120" width="128" height="50" fill="none" stroke="black" stroke-width="1"/>
    <text x="104" y="151" font-family="serif" font-size="14" text-anchor="middle" class="chord"><tspan class="chord-root">C</tspan><tspan class="chord-ext" font-size="10" dy="-4">m7</tspan></text>
    <line x1="40" y1="120" x2="40" y2="170" stroke="black" stroke-width="3" class="barline-repeat-thick"/>
    <line x1="43" y1="120" x2="43" y2="170" stroke="black" stroke-width="1" class="barline-repeat-thin"/>
    <circle cx="49" cy="137" r="2" fill="black" class="barline-repeat-dot"/>
    <circle cx="49" cy="153" r="2" fill="black" class="barline-repeat-dot"/>
    <circle cx="159" cy="137" r="2" fill="black" class="barline-repeat-dot"/>
    <circle cx="159" cy="153" r="2" fill="black" class="barline-repeat-dot"/>
    <line x1="165" y1="120" x2="165" y2="170" stroke="black" stroke-width="1" class="barline-repeat-thin"/>
    <line x1="168" y1="120" x2="168" y2="170" stroke="black" stroke-width="3" class="barline-repeat-thick"/>
    <rect x="168" y="120" width="128" height="50" fill="none" stroke="black" stroke-width="1" class="empty"/>
    <rect x="296" y="120" width="128" height="50" fill="none" stroke="black" stroke-width="1" class="empty"/>
    <rect x="424" y="120" width="131" height="50" fill="none" stroke="black" stroke-width="1" class="empty"/>
    <text x="40" y="114" font-family="sans-serif" font-size="12" font-weight="bold" class="section-label">A</text>
  </g>
</svg>
