<?xml version="1.0" encoding="UTF-8"?>
<svg xmlns="http://www.w3.org/2000/svg" width="595" height="842" viewBox="0 0 595 842">
  <rect x="0" y="0" width="595" height="842" fill="white" stroke="black" stroke-width="1"/>
  <text x="40" y="72" font-family="sans-serif" font-size="24" class="title">AABA Standard</text>
  <text x="40" y="100" font-family="sans-serif" font-size="12" class="meta">Medium Swing • B major</text>
  <g class="bar-grid">
    <rect x="40" y="120" width="128" height="50" fill="none" stroke="black" stroke-width="1"/>
    <text x="104" y="151" font-family="sans-serif" font-size="14" text-anchor="middle" class="chord">Bmaj7</text>
    <rect x="168" y="120" width="128" height="50" fill="none" stroke="black" stroke-width="1"/>
    <text x="232" y="151" font-family="sans-serif" font-size="14" text-anchor="middle" class="chord">Em7</text>
    <rect x="296" y="120" width="128" height="50" fill="none" stroke="black" stroke-width="1"/>
    <text x="360" y="151" font-family="sans-serif" font-size="14" text-anchor="middle" class="chord">A7</text>
    <rect x="424" y="120" width="131" height="50" fill="none" stroke="black" stroke-width="1"/>
    <text x="489" y="151" font-family="sans-serif" font-size="14" text-anchor="middle" class="chord">Dmaj7</text>
    <rect x="40" y="170" width="128" height="50" fill="none" stroke="black" stroke-width="1"/>
    <text x="104" y="201" font-family="sans-serif" font-size="14" text-anchor="middle" class="chord">Bmaj7</text>
    <rect x="168" y="170" width="128" height="50" fill="none" stroke="black" stroke-width="1"/>
    <text x="232" y="201" font-family="sans-serif" font-size="14" text-anchor="middle" class="chord">Fm7</text>
    <rect x="296" y="170" width="128" height="50" fill="none" stroke="black" stroke-width="1"/>
    <text x="360" y="201" font-family="sans-serif" font-size="14" text-anchor="middle" class="chord">B7</text>
    <rect x="424" y="170" width="131" height="50" fill="none" stroke="black" stroke-width="1"/>
    <text x="489" y="201" font-family="sans-serif" font-size="14" text-anchor="middle" class="chord">Emaj7</text>
    <rect x="40" y="220" width="128" height="50" fill="none" stroke="black" stroke-width="1"/>
    <text x="104" y="251" font-family="sans-serif" font-size="14" text-anchor="middle" class="chord">Bmaj7</text>
    <rect x="168" y="220" width="128" height="50" fill="none" stroke="black" stroke-width="1"/>
    <text x="232" y="251" font-family="sans-serif" font-size="14" text-anchor="middle" class="chord">Em7</text>
    <rect x="296" y="220" width="128" height="50" fill="none" stroke="black" stroke-width="1"/>
    <text x="360" y="251" font-family="sans-serif" font-size="14" text-anchor="middle" class="chord">A7</text>
    <rect x="424" y="220" width="131" height="50" fill="none" stroke="black" stroke-width="1"/>
    <text x="489" y="251" font-family="sans-serif" font-size="14" text-anchor="middle" class="chord">Dmaj7</text>
    <rect x="40" y="270" width="128" height="50" fill="none" stroke="black" stroke-width="1"/>
    <text x="104" y="301" font-family="sans-serif" font-size="14" text-anchor="middle" class="chord">Bmaj7</text>
    <rect x="168" y="270" width="128" height="50" fill="none" stroke="black" stroke-width="1"/>
    <text x="232" y="301" font-family="sans-serif" font-size="14" text-anchor="middle" class="chord">Fm7</text>
    <rect x="296" y="270" width="128" height="50" fill="none" stroke="black" stroke-width="1"/>
    <text x="360" y="301" font-family="sans-serif" font-size="14" text-anchor="middle" class="chord">B7</text>
    <rect x="424" y="270" width="131" height="50" fill="none" stroke="black" stroke-width="1"/>
    <text x="489" y="301" font-family="sans-serif" font-size="14" text-anchor="middle" class="chord">Emaj7</text>
    <rect x="40" y="320" width="128" height="50" fill="none" stroke="black" stroke-width="1"/>
    <text x="104" y="351" font-family="sans-serif" font-size="14" text-anchor="middle" class="chord">Am7</text>
    <rect x="168" y="320" width="128" height="50" fill="none" stroke="black" stroke-width="1"/>
    <text x="232" y="351" font-family="sans-serif" font-size="14" text-anchor="middle" class="chord">D7</text>
    <rect x="296" y="320" width="128" height="50" fill="none" stroke="black" stroke-width="1"/>
    <text x="360" y="351" font-family="sans-serif" font-size="14" text-anchor="middle" class="chord">Gmaj7</text>
    <rect x="424" y="320" width="131" height="50" fill="none" stroke="black" stroke-width="1"/>
    <text x="489" y="351" font-family="sans-serif" font-size="14" text-anchor="middle" class="chord">Cm7</text>
    <rect x="40" y="370" width="128" height="50" fill="none" stroke="black" stroke-width="1"/>
    <text x="104" y="401" font-family="sans-serif" font-size="14" text-anchor="middle" class="chord">F7</text>
    <rect x="168" y="370" width="128" height="50" fill="none" stroke="black" stroke-width="1"/>
    <text x="232" y="401" font-family="sans-serif" font-size="14" text-anchor="middle" class="chord">Bmaj7</text>
    <rect x="296" y="370" width="128" height="50" fill="none" stroke="black" stroke-width="1"/>
    <text x="360" y="401" font-family="sans-serif" font-size="14" text-anchor="middle" class="chord">Cm7</text>
    <rect x="424" y="370" width="131" height="50" fill="none" stroke="black" stroke-width="1"/>
    <text x="489" y="401" font-family="sans-serif" font-size="14" text-anchor="middle" class="chord">F7</text>
    <rect x="40" y="420" width="128" height="50" fill="none" stroke="black" stroke-width="1"/>
    <text x="104" y="451" font-family="sans-serif" font-size="14" text-anchor="middle" class="chord">Bmaj7</text>
    <rect x="168" y="420" width="128" height="50" fill="none" stroke="black" stroke-width="1"/>
    <text x="232" y="451" font-family="sans-serif" font-size="14" text-anchor="middle" class="chord">Em7</text>
    <rect x="296" y="420" width="128" height="50" fill="none" stroke="black" stroke-width="1"/>
    <text x="360" y="451" font-family="sans-serif" font-size="14" text-anchor="middle" class="chord">A7</text>
    <rect x="424" y="420" width="131" height="50" fill="none" stroke="black" stroke-width="1"/>
    <text x="489" y="451" font-family="sans-serif" font-size="14" text-anchor="middle" class="chord">Dmaj7</text>
    <rect x="40" y="470" width="128" height="50" fill="none" stroke="black" stroke-width="1"/>
    <text x="104" y="501" font-family="sans-serif" font-size="14" text-anchor="middle" class="chord">Bmaj7</text>
    <rect x="168" y="470" width="128" height="50" fill="none" stroke="black" stroke-width="1"/>
    <text x="232" y="501" font-family="sans-serif" font-size="14" text-anchor="middle" class="chord">Fm7</text>
    <rect x="296" y="470" width="128" height="50" fill="none" stroke="black" stroke-width="1"/>
    <text x="360" y="501" font-family="sans-serif" font-size="14" text-anchor="middle" class="chord">B7</text>
    <rect x="424" y="470" width="131" height="50" fill="none" stroke="black" stroke-width="1"/>
    <text x="489" y="501" font-family="sans-serif" font-size="14" text-anchor="middle" class="chord">Emaj7</text>
  </g>
</svg>
