<?xml version="1.0" encoding="UTF-8" standalone="no"?>
<svg width="180px" height="180px" viewBox="0 0 180 180" version="1.1" xmlns="http://www.w3.org/2000/svg" xmlns:xlink="http://www.w3.org/1999/xlink">
  <title>ChordSketch Logo</title>
  <desc>https://chordsketch.com</desc>
  <defs/>
  <g id="icon" stroke="none" stroke-width="1" fill="none" fill-rule="evenodd">
    <g id="logo">
      <rect id="background" fill="#BD1642" x="0" y="0" width="180" height="180"/>
      <path d="M82.9328334,100.501459 C84.0311093,98.5297919 86.368868,97.6656987 88.5433381,98.2694599 C88.6578145,98.3008392 88.7693854,98.3264075 88.8821185,98.3548813 C89.0669078,98.400207 89.2522781,98.4437894 89.4422973,98.4821419 C89.5375974,98.5013181 89.635222,98.5239809 89.7287788,98.5408328 C89.7729423,98.5489682 89.8165246,98.5507115 89.8606881,98.5559414 C90.8235681,98.7198111 91.8404902,98.8000027 92.9044814,98.7738532 C95.0353691,98.7209733 97.3208289,98.282244 99.5969912,97.4140831 C106.959508,94.607378 111.430478,88.4041529 109.583748,83.5589548 C108.201896,79.9334821 103.674558,78.0966301 98.3993475,78.5760363 C98.7985621,78.4499379 99.1977766,78.3168664 99.5969912,78.1646186 C106.959508,75.3579135 111.430478,69.1546885 109.583748,64.3089092 C108.201896,60.6840176 103.674558,58.8471657 98.3993475,59.3259907 C98.7985621,59.1998924 99.1977766,59.0668209 99.5969912,58.9145731 C106.959508,56.107868 111.430478,49.904643 109.583748,45.0588637 C107.736436,40.2136655 100.270484,38.5604407 92.9079679,41.3671458 C89.9879487,42.4805302 87.5246727,44.1291063 85.7284976,46.0141894 C84.9382039,46.8498088 84.3135231,47.672063 83.8195895,48.5140746 C66.608037,74.3247206 75.0897488,157.615874 75.0897488,157.615874 C75.5546275,146.069449 77.4478459,110.345846 82.9328334,100.501459 Z" id="mark" fill="#FFFFFF"/>
    </g>
  </g>
</svg>
