<?xml version="1.0" encoding="UTF-8"?>
<svg xmlns="http://www.w3.org/2000/svg" width="595" height="842" viewBox="0 0 595 842">
  <rect x="0" y="0" width="595" height="842" fill="white"/>
  <text x="297" y="72" font-family="'Source Serif 4', Georgia, serif" font-weight="700" font-size="22" text-anchor="middle" class="title">Segno Demo</text>
  <text x="40" y="72" font-family="'Source Serif 4', Georgia, serif" font-style="italic" font-size="13" class="meta">(Medium Swing)</text>
  <text x="555" y="72" font-family="'Source Serif 4', Georgia, serif" font-style="italic" font-size="13" text-anchor="end" class="lead-sheet">Lead Sheet</text>
  <line x1="40" y1="112" x2="555" y2="112" stroke="#E8E6EA" stroke-width="1"/>
  <g class="bar-grid">
    <line x1="40" y1="120" x2="40" y2="184" stroke="black" stroke-width="1" class="barline-single"/>
    <text x="48" y="159" font-family="Roboto, sans-serif" font-weight="700" font-size="32" class="chord"><tspan class="chord-root">C</tspan><tspan class="chord-ext" font-size="16" dy="5">Δ7</tspan></text>
    <line x1="168" y1="120" x2="168" y2="184" stroke="black" stroke-width="1" class="barline-single"/>
    <text x="176" y="159" font-family="Roboto, sans-serif" font-weight="700" font-size="32" class="chord"><tspan class="chord-root">A</tspan><tspan class="chord-ext" font-size="16" dy="5">−7</tspan></text>
    <line x1="296" y1="120" x2="296" y2="184" stroke="black" stroke-width="1" class="barline-single"/>
    <text x="304" y="159" font-family="Roboto, sans-serif" font-weight="700" font-size="32" class="chord"><tspan class="chord-root">D</tspan><tspan class="chord-ext" font-size="16" dy="5">−7</tspan></text>
    <line x1="424" y1="120" x2="424" y2="184" stroke="black" stroke-width="1" class="barline-single"/>
    <line x1="555" y1="120" x2="555" y2="184" stroke="black" stroke-width="1" class="barline-single"/>
    <text x="432" y="159" font-family="Roboto, sans-serif" font-weight="700" font-size="32" class="chord"><tspan class="chord-root">G</tspan><tspan class="chord-ext" font-size="16" dy="5">7</tspan></text>
    <text x="26" y="148" font-family="serif" font-weight="700" font-size="16" text-anchor="middle" class="time-sig-num">4</text>
    <line x1="20" y1="153" x2="32" y2="153" stroke="black" stroke-width="1" class="time-sig-rule"/>
    <text x="26" y="166" font-family="serif" font-weight="700" font-size="16" text-anchor="middle" class="time-sig-denom">4</text>
    <rect x="31" y="104" width="18" height="18" fill="black" class="section-marker"/>
    <text x="40" y="116" font-family="sans-serif" font-size="11" font-weight="700" fill="white" text-anchor="middle" class="section-label">A</text>
    <path class="music-symbol-segno" transform="translate(181,101) scale(0.0180,-0.0180) translate(-277.0,-366.0)" d="M135 665C141 665 148 663 151 652L153 645C160 618 175 559 226 559C267 559 295 583 295 626C295 641 292 657 287 673C271 719 204 736 153 736C83 736 4 650 4 551C4 527 9 502 20 477C52 404 197 315 205 312C209 310 211 308 211 304C211 300 209 295 205 288C198 274 54 15 54 15C52 11 51 6 51 2C51 -14 63 -27 79 -27C89 -27 99 -21 104 -12C104 -12 259 268 262 274C262 273 270 279 274 279C289 276 489 217 489 122C489 83 465 57 431 52L428 51C407 51 390 65 390 96V107C390 145 365 173 337 173C333 173 329 172 325 171C288 162 254 146 254 106C254 45 316 -8 375 -8C388 -8 402 -6 417 -1C497 26 550 91 550 174C550 183 549 193 548 203C533 313 375 402 363 408C351 415 346 419 346 424C346 426 347 428 348 430C353 438 508 717 508 717C511 722 512 726 512 731C512 747 499 759 484 759C474 759 464 754 459 745C459 745 300 458 294 449C291 444 289 441 285 441C282 441 279 442 275 444C266 447 115 505 89 550C83 561 75 582 75 603C75 630 87 658 129 665ZM415 466C415 435 441 409 472 409C504 409 529 435 529 466C529 498 504 523 472 523C441 523 415 498 415 466ZM140 264C140 295 115 321 83 321C52 321 26 295 26 264C26 232 52 207 83 207C115 207 140 232 140 264Z" fill="black"/>
  </g>
</svg>
